PathFileType	4	(X/Y/Z)	temp_trc_file_rotated.trc
DataRate	CameraRate	NumFrames	NumMarkers	Units	OrigDataRate	OrigDataStartFrame	OrigNumFrames
250.000000	250.000000	11	40	mm	250.000000	100	806
Frame#	Time	C7			T10			LTH3			RPSI			RTH3			LTB2			LCAL			RMT2			RTB2			RCAL			RMT1			LMT2			LTH2			RTH1			LMT1			LTB1			RTH2			LTB3			LTH1			RTB1			RTB3			CLAV			LASI			STRN			RASI			LPSI			RLFC			RMFC			LLFC			LMFC			RMMAL			RLMAL			LMMAL			LLMAL			LAJC			LHJC			LKJC			RAJC			RHJC			RKJC			
		X1	Y1	Z1	X2	Y2	Z2	X3	Y3	Z3	X4	Y4	Z4	X5	Y5	Z5	X6	Y6	Z6	X7	Y7	Z7	X8	Y8	Z8	X9	Y9	Z9	X10	Y10	Z10	X11	Y11	Z11	X12	Y12	Z12	X13	Y13	Z13	X14	Y14	Z14	X15	Y15	Z15	X16	Y16	Z16	X17	Y17	Z17	X18	Y18	Z18	X19	Y19	Z19	X20	Y20	Z20	X21	Y21	Z21	X22	Y22	Z22	X23	Y23	Z23	X24	Y24	Z24	X25	Y25	Z25	X26	Y26	Z26	X27	Y27	Z27	X28	Y28	Z28	X29	Y29	Z29	X30	Y30	Z30	X31	Y31	Z31	X32	Y32	Z32	X33	Y33	Z33	X34	Y34	Z34	X35	Y35	Z35	X36	Y36	Z36	X37	Y37	Z37	X38	Y38	Z38	X39	Y39	Z39	X40	Y40	Z40	

101	0.4	3538.87939453125	-665.2630615233459	-1547.538452148438	2939.907470703125	645.2919921875	1305.171875	2793.4794921875	512.1267700195312	655.8877563476562	2936.597900390625	704.8634643554688	1095.855712890625	2762.239990234375	808.124267578125	685.9273071289062	2801.23388671875	528.9197387695312	335.0778198242188	0	0	0	0	0	0	0	0	0	0	0	0	0	0	0	0	0	0	0	0	0	0	0	0	0	0	0	0	0	0	0	0	0	0	0	0	0	0	0	0	0	0	0	0	0	0	0	0	0	0	0	0	0	0	0	0	0	0	0	0	0	0	0	0	0	0	0	0	0	0	0	0	0	0	0	0	0	0	0	0	0	0	0	0	0	0	0	0	0	0	0	0	0	0	0	0	0	0	0	0	0	0	
102	0.404	3538.87939453125	-665.2630615233459	-1547.538452148438	2933.621826171875	645.14013671875	1306.3544921875	2790.54296875	512.1805419921875	656.4761962890625	2930.138427734375	704.9317016601562	1097.373779296875	2752.089111328125	808.1203002929688	688.4728393554688	2800.685302734375	529.2561645507812	335.4441223144531	0	0	0	0	0	0	0	0	0	0	0	0	0	0	0	0	0	0	0	0	0	0	0	0	0	0	0	0	0	0	0	0	0	0	0	0	0	0	0	0	0	0	0	0	0	0	0	0	0	0	0	0	0	0	0	0	0	0	0	0	0	0	0	0	0	0	0	0	0	0	0	0	0	0	0	0	0	0	0	0	0	0	0	0	0	0	0	0	0	0	0	0	0	0	0	0	0	0	0	0	0	0	
103	0.408	3538.87939453125	-665.2630615233459	-1547.538452148438	2927.59765625	645.1073608398438	1307.681030273438	2787.462646484375	512.5114135742188	657.09912109375	2923.921875	704.9891357421875	1098.837280273438	2742.195556640625	807.96435546875	691.0492553710938	2800.0654296875	529.526123046875	335.6651916503906	2932.83642578125	607.1505126953125	74.56328582763672	0	0	0	0	0	0	0	0	0	0	0	0	0	0	0	0	0	0	0	0	0	0	0	0	0	0	0	0	0	0	0	0	0	0	0	0	0	0	0	0	0	0	0	0	0	0	0	0	0	0	0	0	0	0	0	0	0	0	0	0	0	0	0	0	0	0	0	0	0	0	0	0	0	0	0	0	0	0	0	0	0	0	0	0	0	0	0	0	0	0	0	0	0	0	0	0	0	0	0	
104	0.412	3538.87939453125	-665.2630615233459	-1547.538452148438	2921.30810546875	644.9580078125	1308.759399414062	2784.688720703125	512.6907348632812	657.8017578125	2917.404541015625	705.0669555664062	1100.17333984375	2732.962646484375	808.5714111328125	693.4071655273438	2799.41845703125	529.9239501953125	335.9771118164062	2930.90673828125	608.5162353515625	74.35553741455078	0	0	0	0	0	0	0	0	0	0	0	0	0	0	0	0	0	0	0	0	0	0	0	0	0	0	0	0	0	0	0	0	0	0	0	0	0	0	0	0	0	0	0	0	0	0	0	0	0	0	0	0	0	0	0	0	0	0	0	0	0	0	0	0	0	0	0	0	0	0	0	0	0	0	0	0	0	0	0	0	0	0	0	0	0	0	0	0	0	0	0	0	0	0	0	0	0	0	0	
105	0.416	3538.87939453125	-665.2630615233459	-1547.538452148438	2915.071533203125	644.847900390625	1309.837890625	2781.483642578125	513.13427734375	658.4195556640625	2911.02783203125	705.1299438476562	1101.695190429688	2724.287353515625	808.888671875	695.7847900390625	2798.82568359375	530.184326171875	336.1333312988281	2930.78564453125	608.6675415039062	74.61197662353516	0	0	0	0	0	0	0	0	0	0	0	0	0	0	0	0	0	0	0	0	0	0	0	0	0	0	0	0	0	0	0	0	0	0	0	0	0	0	0	0	0	0	0	0	0	0	0	0	0	0	0	0	0	0	0	0	0	0	0	0	0	0	0	0	0	0	0	0	0	0	0	0	0	0	0	0	0	0	0	0	0	0	0	0	0	0	0	0	0	0	0	0	0	0	0	0	0	0	0	
106	0.42	3538.87939453125	-665.2630615233459	-1547.538452148438	2908.988037109375	644.7288818359375	1311.049560546875	2779.07373046875	513.2801513671875	659.2177124023438	2904.6005859375	705.2063598632812	1102.903198242188	2714.7490234375	809.0682373046875	698.339599609375	2798.310791015625	530.3886108398438	336.4993286132812	2930.72607421875	608.7110595703125	75.02789306640625	0	0	0	0	0	0	0	0	0	0	0	0	0	0	0	0	0	0	0	0	0	0	0	0	0	0	0	0	0	0	0	0	0	0	0	0	0	0	0	0	0	0	0	0	0	0	0	0	0	0	0	0	0	0	0	0	0	0	0	0	0	0	0	0	0	0	0	0	0	0	0	0	0	0	0	0	0	0	0	0	0	0	0	0	0	0	0	0	0	0	0	0	0	0	0	0	0	0	0	
107	0.424	3538.87939453125	-665.2630615233459	-1547.538452148438	2902.664306640625	644.5789184570312	1312.102661132812	2775.84375	513.7181396484375	659.78857421875	2898.228515625	705.2708740234375	1104.288940429688	2705.403564453125	809.0946655273438	700.9275512695312	2797.81494140625	530.5758056640625	336.77001953125	2930.666015625	608.8399047851562	75.46060180664062	0	0	0	0	0	0	0	0	0	0	0	0	0	0	0	0	0	0	0	0	0	0	0	0	0	0	0	0	0	0	0	0	0	0	0	0	0	0	0	0	0	0	0	0	0	0	0	0	0	0	0	0	0	0	0	0	0	0	0	0	0	0	0	0	0	0	0	0	0	0	0	0	0	0	0	0	0	0	0	0	0	0	0	0	0	0	0	0	0	0	0	0	0	0	0	0	0	0	0	
108	0.428	3538.87939453125	-665.2630615233459	-1547.538452148438	2896.37744140625	644.4735717773438	1312.983642578125	2773.318603515625	513.9044799804688	660.4429931640625	2891.63818359375	705.4489135742188	1105.461059570312	2695.885498046875	809.32568359375	703.2205810546875	2797.1376953125	530.8822021484375	337.16259765625	2930.499267578125	608.9371948242188	75.84612274169922	2912.947021484375	770.1932983398438	112.2467575073242	0	0	0	0	0	0	0	0	0	0	0	0	0	0	0	0	0	0	0	0	0	0	0	0	0	0	0	0	0	0	0	0	0	0	0	0	0	0	0	0	0	0	0	0	0	0	0	0	0	0	0	0	0	0	0	0	0	0	0	0	0	0	0	0	0	0	0	0	0	0	0	0	0	0	0	0	0	0	0	0	0	0	0	0	0	0	0	0	0	0	0	0	0	0	0	0	
109	0.432	3538.87939453125	-665.2630615233459	-1547.538452148438	2890.255126953125	644.3577270507812	1314.042114257812	2770.329345703125	514.2847290039062	661.0123901367188	2885.284912109375	705.4705200195312	1106.679931640625	2686.5654296875	809.2539672851562	705.4319458007812	2796.62353515625	531.08740234375	337.4469604492188	2930.4873046875	609.0283203125	76.27256011962891	2893.454345703125	770.7186279296875	109.7350158691406	0	0	0	0	0	0	0	0	0	0	0	0	0	0	0	0	0	0	0	0	0	0	0	0	0	0	0	0	0	0	0	0	0	0	0	0	0	0	0	0	0	0	0	0	0	0	0	0	0	0	0	0	0	0	0	0	0	0	0	0	0	0	0	0	0	0	0	0	0	0	0	0	0	0	0	0	0	0	0	0	0	0	0	0	0	0	0	0	0	0	0	0	0	0	0	0	
110	0.436	3538.87939453125	-665.2630615233459	-1547.538452148438	2883.90185546875	644.2095336914062	1314.989501953125	2767.7431640625	514.5108032226562	661.6142578125	2878.82568359375	705.6414794921875	1107.786010742188	2678.055419921875	809.4165649414062	707.7015991210938	2796.124755859375	531.3970336914062	337.8184204101562	2930.41162109375	609.1693115234375	76.68168640136719	2873.90185546875	771.2203369140625	107.4565887451172	0	0	0	0	0	0	0	0	0	0	0	0	0	0	0	0	0	0	0	0	0	0	0	0	0	0	0	0	0	0	0	0	0	0	0	0	0	0	0	0	0	0	0	0	0	0	0	0	0	0	0	0	0	0	0	0	0	0	0	0	0	0	0	0	0	0	0	0	0	0	0	0	0	0	0	0	0	0	0	0	0	0	0	0	0	0	0	0	0	0	0	0	0	0	0	0	
111	0.44	3538.87939453125	-665.2630615233459	-1547.538452148438	2877.655517578125	644.0549926757812	1315.846801757812	2764.989990234375	514.750732421875	662.3701171875	2872.511474609375	705.6177978515625	1108.888305664062	2668.90673828125	809.6543579101562	709.8574829101562	2795.58544921875	531.5249633789062	338.1080017089844	2930.308837890625	609.2229614257812	77.03253173828125	2854.327392578125	772.0706787109375	104.9340515136719	0	0	0	0	0	0	0	0	0	0	0	0	0	0	0	0	0	0	0	0	0	0	0	0	0	0	0	0	0	0	0	0	0	0	0	0	0	0	0	0	0	0	0	0	0	0	0	0	0	0	0	0	0	0	0	0	0	0	0	0	0	0	0	0	0	0	0	0	0	0	0	0	0	0	0	0	0	0	0	0	0	0	0	0	0	0	0	0	0	0	0	0	0	0	0	0	
